<svg viewBox="-960 -455.5 1920 911" width="1920" height="911" style="background-color: rgb(255, 255, 255);" xmlns="http://www.w3.org/2000/svg"><path d="M-181.4715163088366,7.521964478377889L-207.24969846591028,2.127960404007976M-207.24969846591028,-145.5040974115806L-207.24969846591028,2.127960404007976M-207.24969846591028,2.127960404007976L-295.7414932802005,40.254762096980244M-181.4715163088366,-140.11009333721069L-181.4715163088366,7.521964478377889M-181.4715163088366,7.521964478377889L-269.9633111231268,45.648766171350154" style="fill:none;stroke:rgb(0,0,0);stroke-width:1;stroke-linecap:round"></path><path d="M-181.4715163088366,7.521964478377886L-207.24969846591028,2.1279604040079785L-207.24969846591028,-145.5040974115806zM-181.4715163088366,-140.11009333721069L-181.4715163088366,7.521964478377886L-207.24969846591028,-145.5040974115806zM-295.7414932802004,40.254762096980244L-207.24969846591028,2.1279604040079785L-181.4715163088366,7.521964478377886z" style="fill:rgb(238,238,238); fill-opacity: 0.4"></path><path d="M-181.4715163088366,-140.11009333721069L-207.24969846591028,-145.5040974115806M-207.24969846591028,-145.5040974115806L-295.7414932802005,-107.37729571860832M-53.295107587309516,34.26708289119708L-134.61621915975877,17.25089437637916M-134.61621915975877,-130.136502854283L-134.61621915975877,17.25089437637916M-134.61621915975877,17.25089437637916L-222.96136253126068,55.31451110978642M-218.3026065752632,8.97879030897611L-244.0807887323369,3.5847862346062005M-244.0807887323369,0.8567426627240474L-244.0807887323369,3.5847862346062005M-244.0807887323369,3.5847862346062005L-245.71599910316968,4.289318690591217M-218.3026065752632,6.250746737093959L-244.0807887323369,0.8567426627240474M-244.0807887323369,0.8567426627240474L-245.71599910316968,1.5612751187090639" style="fill:none;stroke:rgb(0,0,0);stroke-width:1;stroke-linecap:round"></path><path d="M-244.08078873233686,0.8567426627240414L-244.08078873233686,3.5847862346061996L-245.71599910316968,1.5612751187090566zM-244.08078873233686,3.5847862346061996L-245.71599910316968,4.289318690591214L-245.71599910316968,1.5612751187090566z" style="fill:rgb(153,221,255); fill-opacity: 0.4"></path><path d="M-245.71599910316968,1.5612751187090639L-245.71599910316968,4.289318690591217M-245.71599910316968,4.289318690591217L-219.937816946096,9.68332276496113M-245.71599910316968,1.5612751187090639L-219.937816946096,6.955279193078975" style="fill:none;stroke:rgb(0,0,0);stroke-width:1;stroke-linecap:round"></path><path d="M-218.3026065752632,8.978790308976107L-244.08078873233686,3.5847862346061996L-244.08078873233686,0.8567426627240414zM-245.71599910316968,4.289318690591214L-244.08078873233686,3.5847862346061996L-218.3026065752632,8.978790308976107zM-245.71599910316968,1.5612751187090566L-219.93781694609604,6.9552791930789635L-244.08078873233686,0.8567426627240414zM-245.71599910316968,1.5612751187090566L-245.71599910316968,4.289318690591214L-219.93781694609604,6.9552791930789635z" style="fill:rgb(153,221,255); fill-opacity: 0.4"></path><path d="M-181.4715163088366,-140.11009333721069L-269.9633111231268,-101.98329164423842" style="fill:none;stroke:rgb(0,0,0);stroke-width:1;stroke-linecap:round"></path><path d="M-218.3026065752632,6.250746737093948L-218.3026065752632,8.978790308976107L-244.08078873233686,0.8567426627240414zM-219.93781694609604,9.683322764961122L-245.71599910316968,4.289318690591214L-218.3026065752632,8.978790308976107zM-219.93781694609604,6.9552791930789635L-218.3026065752632,6.250746737093948L-244.08078873233686,0.8567426627240414zM-245.71599910316968,4.289318690591214L-219.93781694609604,9.683322764961122L-219.93781694609604,6.9552791930789635z" style="fill:rgb(153,221,255); fill-opacity: 0.4"></path><path d="M-207.24969846591028,-145.5040974115806L-207.24969846591028,2.1279604040079785L-295.7414932802004,-107.37729571860834z" style="fill:rgb(238,238,238); fill-opacity: 0.4"></path><path d="M-218.3026065752632,6.250746737093959L-218.3026065752632,8.97879030897611M-218.3026065752632,8.97879030897611L-219.937816946096,9.68332276496113M-218.3026065752632,6.250746737093959L-219.937816946096,6.955279193078975" style="fill:none;stroke:rgb(0,0,0);stroke-width:1;stroke-linecap:round"></path><path d="M-269.9633111231268,45.64876617135015L-181.4715163088366,7.521964478377886L-181.4715163088366,-140.11009333721069z" style="fill:rgb(238,238,238); fill-opacity: 0.4"></path><path d="M-219.93781694609604,9.683322764961122L-218.3026065752632,8.978790308976107L-218.3026065752632,6.250746737093948z" style="fill:rgb(153,221,255); fill-opacity: 0.4"></path><path d="M-219.12021199337622,7.967034702336504L-219.12021199337622,7.967034702336504L-219.12021199337622,7.967034702336504zM-219.12021199337622,7.967034702336504L-219.12021199337622,7.967034702336504L-219.12021199337622,7.967034702336504z" style="fill:rgb(255,187,187); fill-opacity: 0.4"></path><path d="M-219.93781694609604,6.9552791930789635L-219.93781694609604,9.683322764961122L-218.3026065752632,6.250746737093948z" style="fill:rgb(153,221,255); fill-opacity: 0.4"></path><path d="M-219.937816946096,6.955279193078975L-219.937816946096,9.68332276496113" style="fill:none;stroke:rgb(0,0,0);stroke-width:1;stroke-linecap:round"></path><path d="M-53.295107587309516,34.267082891197084L-134.61621915975877,17.250894376379165L-134.61621915975877,-130.136502854283z" style="fill:rgb(238,238,238); fill-opacity: 0.4"></path><path d="M-219.12021199337622,7.967034702336504L-219.12021199337622,7.967034702336504L-172.20252114021812,17.695224094141913zM-219.12021199337622,7.967034702336504L-219.12021199337622,7.967034702336504L-172.20252114021812,17.695224094141913zM-219.12021199337622,7.967034702336504L-219.12021199337622,7.967034702336504L-172.20252114021812,17.695224094141913zM-219.12021199337622,7.967034702336504L-219.12021199337622,7.967034702336504L-172.20252114021812,17.695224094141913z" style="fill:rgb(255,187,187); fill-opacity: 0.4"></path><path d="M-269.9633111231268,45.64876617135015L-295.7414932802004,40.254762096980244L-181.4715163088366,7.521964478377886z" style="fill:rgb(238,238,238); fill-opacity: 0.4"></path><path d="M-53.295107587309516,-113.1203143394651L-134.61621915975877,-130.136502854283M-134.61621915975877,-130.136502854283L-222.96136253126068,-92.07288612087575" style="fill:none;stroke:rgb(0,0,0);stroke-width:1;stroke-linecap:round"></path><path d="M-207.24969846591028,2.1279604040079785L-295.7414932802004,40.254762096980244L-295.7414932802004,-107.37729571860834zM-269.9633111231268,-101.98329164423842L-181.4715163088366,-140.11009333721069L-207.24969846591028,-145.5040974115806z" style="fill:rgb(238,238,238); fill-opacity: 0.4"></path><path d="M-53.295107587309516,-113.1203143394651L-53.295107587309516,34.26708289119708M-53.295107587309516,34.26708289119708L-141.64025095881144,72.33069962460434" style="fill:none;stroke:rgb(0,0,0);stroke-width:1;stroke-linecap:round"></path><path d="M-222.9613625312607,55.314511109786416L-134.61621915975877,17.250894376379165L-53.295107587309516,34.267082891197084zM-53.295107587309516,-113.1203143394651L-53.295107587309516,34.267082891197084L-134.61621915975877,-130.136502854283zM-134.61621915975877,-130.136502854283L-134.61621915975877,17.250894376379165L-222.9613625312607,-92.07288612087575z" style="fill:rgb(238,238,238); fill-opacity: 0.4"></path><path d="M-295.7414932802005,-107.37729571860832L-295.7414932802005,40.254762096980244M-295.7414932802005,40.254762096980244L-269.9633111231268,45.648766171350154" style="fill:none;stroke:rgb(0,0,0);stroke-width:1;stroke-linecap:round"></path><path d="M-269.9633111231268,-101.98329164423842L-269.9633111231268,45.64876617135015L-181.4715163088366,-140.11009333721069zM-295.7414932802004,-107.37729571860834L-269.9633111231268,-101.98329164423842L-207.24969846591028,-145.5040974115806z" style="fill:rgb(238,238,238); fill-opacity: 0.4"></path><path d="M-269.9633111231268,-101.98329164423842L-269.9633111231268,45.648766171350154M69.28741777158689,54.08998279965526L-12.033693800862379,37.07379428483734M-12.033693800862379,-91.40424318925196L-12.033693800862379,37.07379428483734M-12.033693800862379,37.07379428483734L-89.04442100010964,70.25396347814132" style="fill:none;stroke:rgb(0,0,0);stroke-width:1;stroke-linecap:round"></path><path d="M-134.61621915975877,17.250894376379165L-222.9613625312607,55.314511109786416L-222.9613625312607,-92.07288612087575zM-295.7414932802004,40.254762096980244L-269.9633111231268,45.64876617135015L-269.9633111231268,-101.98329164423842z" style="fill:rgb(238,238,238); fill-opacity: 0.4"></path><path d="M-53.295107587309516,-113.1203143394651L-141.64025095881144,-75.05669760605784" style="fill:none;stroke:rgb(0,0,0);stroke-width:1;stroke-linecap:round"></path><path d="M-295.7414932802004,-107.37729571860834L-295.7414932802004,40.254762096980244L-269.9633111231268,-101.98329164423842zM-141.64025095881144,72.33069962460434L-53.295107587309516,34.267082891197084L-53.295107587309516,-113.1203143394651zM-141.64025095881144,72.33069962460434L-222.9613625312607,55.314511109786416L-53.295107587309516,34.267082891197084z" style="fill:rgb(238,238,238); fill-opacity: 0.4"></path><path d="M-295.7414932802005,-107.37729571860832L-269.9633111231268,-101.98329164423842M-222.96136253126068,-92.07288612087575L-222.96136253126068,55.31451110978642M-222.96136253126068,55.31451110978642L-141.64025095881144,72.33069962460434" style="fill:none;stroke:rgb(0,0,0);stroke-width:1;stroke-linecap:round"></path><path d="M-141.64025095881144,-75.05669760605784L-53.295107587309516,-113.1203143394651L-134.61621915975877,-130.136502854283zM69.28741777158689,54.08998279965526L-12.033693800862377,37.07379428483734L-12.033693800862377,-91.40424318925197z" style="fill:rgb(238,238,238); fill-opacity: 0.4"></path><path d="M-129.98411672941927,-31.24407317773133L-211.30522830186854,-48.26026169254924M-211.30522830186854,-56.444392408195704L-211.30522830186854,-48.26026169254924M-211.30522830186854,-48.26026169254924L-216.21085941436695,-46.14666432459419M69.28741777158689,-74.38805467443404L-12.033693800862379,-91.40424318925196M-12.033693800862379,-91.40424318925196L-89.04442100010964,-58.22407399594801M-129.98411672941927,-39.42820389337779L-211.30522830186854,-56.444392408195704M-211.30522830186854,-56.444392408195704L-216.21085941436695,-54.33079504024065" style="fill:none;stroke:rgb(0,0,0);stroke-width:1;stroke-linecap:round"></path><path d="M-211.30522830186857,-56.444392408195704L-211.30522830186857,-48.26026169254924L-216.21085941436695,-54.33079504024065zM-211.30522830186857,-48.26026169254924L-216.21085941436695,-46.1466643245942L-216.21085941436695,-54.33079504024065z" style="fill:rgb(153,221,255); fill-opacity: 0.4"></path><path d="M-216.21085941436695,-54.33079504024065L-216.21085941436695,-46.14666432459419M-216.21085941436695,-46.14666432459419L-134.88974784191768,-29.130475809776282" style="fill:none;stroke:rgb(0,0,0);stroke-width:1;stroke-linecap:round"></path><path d="M-222.9613625312607,-92.07288612087575L-141.64025095881144,-75.05669760605784L-134.61621915975877,-130.136502854283z" style="fill:rgb(238,238,238); fill-opacity: 0.4"></path><path d="M-216.21085941436695,-54.33079504024065L-134.88974784191768,-37.31460652542274" style="fill:none;stroke:rgb(0,0,0);stroke-width:1;stroke-linecap:round"></path><path d="M-89.04442100010965,70.2539634781413L-12.033693800862377,37.07379428483734L69.28741777158689,54.08998279965526z" style="fill:rgb(238,238,238); fill-opacity: 0.4"></path><path d="M69.28741777158689,-74.38805467443404L69.28741777158689,54.08998279965526M69.28741777158689,54.08998279965526L-7.723309427660373,87.27015199295921" style="fill:none;stroke:rgb(0,0,0);stroke-width:1;stroke-linecap:round"></path><path d="M-129.98411672941927,-31.244073177731327L-211.30522830186857,-48.26026169254924L-211.30522830186857,-56.444392408195704zM-216.21085941436695,-46.1466643245942L-211.30522830186857,-48.26026169254924L-129.98411672941927,-31.244073177731327z" style="fill:rgb(153,221,255); fill-opacity: 0.4"></path><path d="M-12.033693800862377,-91.40424318925197L-12.033693800862377,37.07379428483734L-89.04442100010965,-58.22407399594801zM69.28741777158689,-74.38805467443404L69.28741777158689,54.08998279965526L-12.033693800862377,-91.40424318925197z" style="fill:rgb(238,238,238); fill-opacity: 0.4"></path><path d="M-216.21085941436695,-54.33079504024065L-134.88974784191768,-37.31460652542273L-211.30522830186857,-56.444392408195704zM-216.21085941436695,-54.33079504024065L-216.21085941436695,-46.1466643245942L-134.88974784191768,-37.31460652542273z" style="fill:rgb(153,221,255); fill-opacity: 0.4"></path><path d="M-141.64025095881144,-75.05669760605784L-141.64025095881144,72.33069962460434L-53.295107587309516,-113.1203143394651z" style="fill:rgb(238,238,238); fill-opacity: 0.4"></path><path d="M-222.96136253126068,-92.07288612087575L-141.64025095881144,-75.05669760605784" style="fill:none;stroke:rgb(0,0,0);stroke-width:1;stroke-linecap:round"></path><path d="M-222.9613625312607,-92.07288612087575L-222.9613625312607,55.314511109786416L-141.64025095881144,-75.05669760605784zM-222.9613625312607,55.314511109786416L-141.64025095881144,72.33069962460434L-141.64025095881144,-75.05669760605784z" style="fill:rgb(238,238,238); fill-opacity: 0.4"></path><path d="M-129.98411672941927,-39.428203893377784L-129.98411672941927,-31.244073177731327L-211.30522830186857,-56.444392408195704z" style="fill:rgb(153,221,255); fill-opacity: 0.4"></path><path d="M-141.64025095881144,-75.05669760605784L-141.64025095881144,72.33069962460434" style="fill:none;stroke:rgb(0,0,0);stroke-width:1;stroke-linecap:round"></path><path d="M-134.88974784191768,-29.130475809776282L-216.21085941436695,-46.1466643245942L-129.98411672941927,-31.244073177731327zM-134.88974784191768,-37.31460652542273L-129.98411672941927,-39.428203893377784L-211.30522830186857,-56.444392408195704zM-216.21085941436695,-46.1466643245942L-134.88974784191768,-29.130475809776282L-134.88974784191768,-37.31460652542273z" style="fill:rgb(153,221,255); fill-opacity: 0.4"></path><path d="M-12.033693800862377,37.07379428483734L-89.04442100010965,70.2539634781413L-89.04442100010965,-58.22407399594801z" style="fill:rgb(238,238,238); fill-opacity: 0.4"></path><path d="M213.65270967974874,84.1451145487623L116.06738295354941,63.72568982934321M116.06738295354941,-64.25632458562518L116.06738295354941,63.72568982934321M116.06738295354941,63.72568982934321L39.35397580402815,96.77775830326367M-129.98412090408686,-39.42820555517987L-129.98412090408686,-31.244074839533415M-129.98412090408686,-31.244074839533415L-134.88975201658528,-29.130477471578363M-129.98412090408686,-31.244074839533415L-81.02185888465132,-22.678329877194734M-129.98411672941927,-39.42820389337779L-129.98411672941927,-31.24407317773133M-129.98411672941927,-31.24407317773133L-134.88974784191768,-29.130475809776282M69.28741777158689,-74.38805467443404L-7.723309427660373,-41.20788548113009M-129.98412090408686,-39.42820555517987L-134.88975201658528,-37.31460818722482M-129.98412090408686,-39.42820555517987L-81.02185888465132,-22.678329877194734M-129.98411672941927,-39.42820389337779L-134.88974784191768,-37.31460652542274" style="fill:none;stroke:rgb(0,0,0);stroke-width:1;stroke-linecap:round"></path><path d="M-129.98411796001335,-39.42820415087575L-129.98411796001335,-31.244073435229293L-134.8897490725118,-29.130476067274248z" style="fill:rgb(255,187,187); fill-opacity: 0.4"></path><path d="M-134.88974784191768,-29.130475809776282L-129.98411672941927,-31.244073177731327L-129.98411672941927,-39.428203893377784z" style="fill:rgb(153,221,255); fill-opacity: 0.4"></path><path d="M-129.98411796001335,-39.42820415087575L-134.8897490725118,-29.130476067274248L-134.8897490725118,-37.3146067829207z" style="fill:rgb(255,187,187); fill-opacity: 0.4"></path><path d="M-134.88974784191768,-37.31460652542273L-134.88974784191768,-29.130475809776282L-129.98411672941927,-39.428203893377784z" style="fill:rgb(153,221,255); fill-opacity: 0.4"></path><path d="M-134.88975201658528,-29.130477471578363L-134.88975201658528,-37.31460818722482M-134.88975201658528,-29.130477471578363L-81.02185888465132,-22.678329877194734M-134.88974784191768,-37.31460652542274L-134.88974784191768,-29.130475809776282M17.340090513461128,-18.12321312474538L-63.98102105898815,-35.139401639563296M-63.98102105898815,-40.5954887833276L-63.98102105898815,-35.139401639563296M-63.98102105898815,-35.139401639563296L-67.25144180065377,-33.73033672759326M17.340090513461128,-23.57930026850969L-63.98102105898815,-40.5954887833276M-63.98102105898815,-40.5954887833276L-67.25144180065377,-39.186423871357576" style="fill:none;stroke:rgb(0,0,0);stroke-width:1;stroke-linecap:round"></path><path d="M-7.723309427660378,87.27015199295921L69.28741777158689,54.08998279965526L69.28741777158689,-74.38805467443404z" style="fill:rgb(238,238,238); fill-opacity: 0.4"></path><path d="M-134.88975201658528,-37.31460818722482L-81.02185888465132,-22.678329877194734" style="fill:none;stroke:rgb(0,0,0);stroke-width:1;stroke-linecap:round"></path><path d="M-63.98102105898815,-40.59548878332762L-63.98102105898815,-35.1394016395633L-67.25144180065377,-39.18642387135758z" style="fill:rgb(153,221,255); fill-opacity: 0.4"></path><path d="M-129.98411796001335,-31.244073435229293L-129.98411796001335,-39.42820415087575L-81.02185970222821,-22.678328533915227z" style="fill:rgb(255,187,187); fill-opacity: 0.4"></path><path d="M-63.98102105898815,-35.1394016395633L-67.25144180065377,-33.73033672759327L-67.25144180065377,-39.18642387135758z" style="fill:rgb(153,221,255); fill-opacity: 0.4"></path><path d="M-67.25144180065377,-39.186423871357576L-67.25144180065377,-33.73033672759326M-67.25144180065377,-33.73033672759326L14.069669771795514,-16.71414821277535M-89.04442100010964,-58.22407399594801L-89.04442100010964,70.25396347814132M-89.04442100010964,70.25396347814132L-7.723309427660373,87.27015199295921" style="fill:none;stroke:rgb(0,0,0);stroke-width:1;stroke-linecap:round"></path><path d="M-134.8897490725118,-29.130476067274248L-129.98411796001335,-31.244073435229293L-81.02185970222821,-22.678328533915227z" style="fill:rgb(255,187,187); fill-opacity: 0.4"></path><path d="M-7.723309427660378,87.27015199295921L-89.04442100010965,70.2539634781413L69.28741777158689,54.08998279965526z" style="fill:rgb(238,238,238); fill-opacity: 0.4"></path><path d="M-67.25144180065377,-39.186423871357576L14.069669771795514,-22.170235356539653" style="fill:none;stroke:rgb(0,0,0);stroke-width:1;stroke-linecap:round"></path><path d="M-129.98411796001335,-39.42820415087575L-134.8897490725118,-37.3146067829207L-81.02185970222821,-22.678328533915227zM-134.8897490725118,-37.3146067829207L-134.8897490725118,-29.130476067274248L-81.02185970222821,-22.678328533915227z" style="fill:rgb(255,187,187); fill-opacity: 0.4"></path><path d="M-7.723309427660378,-41.20788548113009L69.28741777158689,-74.38805467443404L-12.033693800862377,-91.40424318925197z" style="fill:rgb(238,238,238); fill-opacity: 0.4"></path><path d="M17.340090513461124,-18.123213124745384L-63.98102105898815,-35.1394016395633L-63.98102105898815,-40.59548878332762zM-67.25144180065377,-33.73033672759327L-63.98102105898815,-35.1394016395633L17.340090513461124,-18.123213124745384z" style="fill:rgb(153,221,255); fill-opacity: 0.4"></path><path d="M213.65270967974874,84.1451145487623L116.06738295354941,63.72568982934321L116.06738295354941,-64.25632458562518z" style="fill:rgb(238,238,238); fill-opacity: 0.4"></path><path d="M-67.25144180065377,-39.18642387135758L14.069669771795509,-22.170235356539656L-63.98102105898815,-40.59548878332762zM-67.25144180065377,-39.18642387135758L-67.25144180065377,-33.73033672759327L14.069669771795509,-22.170235356539656z" style="fill:rgb(153,221,255); fill-opacity: 0.4"></path><path d="M213.65270967974874,-43.836899866206096L116.06738295354941,-64.25632458562518M116.06738295354941,-64.25632458562518L39.35397580402815,-31.20425611170472" style="fill:none;stroke:rgb(0,0,0);stroke-width:1;stroke-linecap:round"></path><path d="M-89.04442100010965,-58.22407399594801L-7.723309427660378,-41.20788548113009L-12.033693800862377,-91.40424318925197z" style="fill:rgb(238,238,238); fill-opacity: 0.4"></path><path d="M17.340090513461124,-23.579300268509694L17.340090513461124,-18.123213124745384L-63.98102105898815,-40.59548878332762zM14.069669771795509,-16.714148212775346L-67.25144180065377,-33.73033672759327L17.340090513461124,-18.123213124745384zM14.069669771795509,-22.170235356539656L17.340090513461124,-23.579300268509694L-63.98102105898815,-40.59548878332762zM-67.25144180065377,-33.73033672759327L14.069669771795509,-16.714148212775346L14.069669771795509,-22.170235356539656z" style="fill:rgb(153,221,255); fill-opacity: 0.4"></path><path d="M39.35397580402816,96.77775830326367L116.06738295354941,63.72568982934321L213.65270967974874,84.1451145487623z" style="fill:rgb(238,238,238); fill-opacity: 0.4"></path><path d="M-89.04442100010964,-58.22407399594801L-7.723309427660373,-41.20788548113009" style="fill:none;stroke:rgb(0,0,0);stroke-width:1;stroke-linecap:round"></path><path d="M116.06738295354941,-64.25632458562518L116.06738295354941,63.72568982934321L39.35397580402816,-31.20425611170472zM-89.04442100010965,-58.22407399594801L-89.04442100010965,70.2539634781413L-7.723309427660378,-41.20788548113009z" style="fill:rgb(238,238,238); fill-opacity: 0.4"></path><path d="M213.65270967974874,-43.836899866206096L213.65270967974874,84.1451145487623M213.65270967974874,84.1451145487623L136.93930253022748,117.19718302268274" style="fill:none;stroke:rgb(0,0,0);stroke-width:1;stroke-linecap:round"></path><path d="M-7.723309427660378,-41.20788548113009L-7.723309427660378,87.27015199295921L69.28741777158689,-74.38805467443404zM-89.04442100010965,70.2539634781413L-7.723309427660378,87.27015199295921L-7.723309427660378,-41.20788548113009z" style="fill:rgb(238,238,238); fill-opacity: 0.4"></path><path d="M17.340090402108842,-23.579301423968303L17.340090402108842,-18.123214280203996M17.340090402108842,-18.123214280203996L14.069669660443225,-16.71414936823396M17.340090402108842,-18.123214280203996L62.69171046156433,-10.224408234365058M17.340090513461128,-23.57930026850969L17.340090513461128,-18.12321312474538M17.340090513461128,-18.12321312474538L14.069669771795514,-16.71414821277535" style="fill:none;stroke:rgb(0,0,0);stroke-width:1;stroke-linecap:round"></path><path d="M213.65270967974874,-43.8368998662061L213.65270967974874,84.1451145487623L116.06738295354941,-64.25632458562518z" style="fill:rgb(238,238,238); fill-opacity: 0.4"></path><path d="M17.340090402108842,-23.579301423968303L14.069669660443225,-22.170236511998265M17.340090402108842,-23.579301423968303L62.69171046156433,-10.224408234365058M17.340090513461128,-23.57930026850969L14.069669771795514,-22.170235356539653" style="fill:none;stroke:rgb(0,0,0);stroke-width:1;stroke-linecap:round"></path><path d="M17.340089282867027,-23.579300526007664L17.340089282867027,-18.123213382243353L14.069668541201409,-16.71414847027332z" style="fill:rgb(255,187,187); fill-opacity: 0.4"></path><path d="M14.069669771795509,-16.714148212775346L17.340090513461124,-18.123213124745384L17.340090513461124,-23.579300268509694z" style="fill:rgb(153,221,255); fill-opacity: 0.4"></path><path d="M17.340089282867027,-23.579300526007664L14.069668541201409,-16.71414847027332L14.069668541201409,-22.17023561403763z" style="fill:rgb(255,187,187); fill-opacity: 0.4"></path><path d="M14.069669771795509,-22.170235356539656L14.069669771795509,-16.714148212775346L17.340090513461124,-23.579300268509694z" style="fill:rgb(153,221,255); fill-opacity: 0.4"></path><path d="M14.069669660443225,-16.71414936823396L14.069669660443225,-22.170236511998265M14.069669660443225,-16.71414936823396L62.69171046156433,-10.224408234365058M14.069669771795514,-22.170235356539653L14.069669771795514,-16.71414821277535M-7.723309427660373,-41.20788548113009L-7.723309427660373,87.27015199295921M14.069669660443225,-22.170236511998265L62.69171046156433,-10.224408234365058" style="fill:none;stroke:rgb(0,0,0);stroke-width:1;stroke-linecap:round"></path><path d="M17.340089282867027,-18.123213382243353L17.340089282867027,-23.579300526007664L62.691712446578244,-10.22440773502243zM14.069668541201409,-16.71414847027332L17.340089282867027,-18.123213382243353L62.691712446578244,-10.22440773502243z" style="fill:rgb(255,187,187); fill-opacity: 0.4"></path><path d="M116.06738295354941,63.72568982934321L39.35397580402816,96.77775830326367L39.35397580402816,-31.20425611170472z" style="fill:rgb(238,238,238); fill-opacity: 0.4"></path><path d="M17.340089282867027,-23.579300526007664L14.069668541201409,-22.17023561403763L62.691712446578244,-10.22440773502243zM14.069668541201409,-22.17023561403763L14.069668541201409,-16.71414847027332L62.691712446578244,-10.22440773502243z" style="fill:rgb(255,187,187); fill-opacity: 0.4"></path><path d="M153.19448651532153,44.436266075947884L55.60915978912221,24.01684135652881M55.60915978912221,15.832710640882352L55.60915978912221,24.01684135652881M55.60915978912221,24.01684135652881L50.70352867662379,26.130438724483863M39.35397580402815,-31.20425611170472L39.35397580402815,96.77775830326367M39.35397580402815,96.77775830326367L136.93930253022748,117.19718302268274M213.65270967974874,-43.836899866206096L136.93930253022748,-10.784831392285648M153.19448651532153,36.25213536030142L55.60915978912221,15.832710640882352M55.60915978912221,15.832710640882352L50.70352867662379,17.946308008837402M352.4241007250146,107.27800168320874L254.83877399881527,86.85857696378967M254.83877399881527,-21.962642373788903L254.83877399881527,86.85857696378967M254.83877399881527,86.85857696378967L189.61049529331413,114.96226332474208" style="fill:none;stroke:rgb(0,0,0);stroke-width:1;stroke-linecap:round"></path><path d="M55.60915978912222,15.832710640882356L55.60915978912222,24.01684135652882L50.703528676623804,17.946308008837406zM55.60915978912222,24.01684135652882L50.703528676623804,26.13043872448387L50.703528676623804,17.946308008837406z" style="fill:rgb(153,221,255); fill-opacity: 0.4"></path><path d="M50.70352867662379,17.946308008837402L50.70352867662379,26.130438724483863M50.70352867662379,26.130438724483863L148.28885540282312,46.549863443902936M50.70352867662379,17.946308008837402L148.28885540282312,38.36573272825647" style="fill:none;stroke:rgb(0,0,0);stroke-width:1;stroke-linecap:round"></path><path d="M136.9393025302275,117.19718302268276L39.35397580402816,96.77775830326367L213.65270967974874,84.1451145487623zM136.9393025302275,117.19718302268276L213.65270967974874,84.1451145487623L213.65270967974874,-43.8368998662061zM136.9393025302275,-10.784831392285641L213.65270967974874,-43.8368998662061L116.06738295354941,-64.25632458562518z" style="fill:rgb(238,238,238); fill-opacity: 0.4"></path><path d="M153.19448651532156,44.4362660759479L55.60915978912222,24.01684135652882L55.60915978912222,15.832710640882356zM50.703528676623804,26.13043872448387L55.60915978912222,24.01684135652882L153.19448651532156,44.4362660759479z" style="fill:rgb(153,221,255); fill-opacity: 0.4"></path><path d="M39.35397580402816,-31.20425611170472L136.9393025302275,-10.784831392285641L116.06738295354941,-64.25632458562518z" style="fill:rgb(238,238,238); fill-opacity: 0.4"></path><path d="M50.703528676623804,17.946308008837406L148.28885540282315,38.36573272825648L55.60915978912222,15.832710640882356zM50.703528676623804,17.946308008837406L50.703528676623804,26.13043872448387L148.28885540282315,38.36573272825648z" style="fill:rgb(153,221,255); fill-opacity: 0.4"></path><path d="M352.4241007250146,107.27800168320873L254.83877399881527,86.85857696378967L254.83877399881527,-21.9626423737889z" style="fill:rgb(238,238,238); fill-opacity: 0.4"></path><path d="M352.4241007250146,-1.5432176543698206L254.83877399881527,-21.962642373788903M254.83877399881527,-21.962642373788903L189.61049529331413,6.141043987163528M39.35397580402815,-31.20425611170472L136.93930253022748,-10.784831392285648" style="fill:none;stroke:rgb(0,0,0);stroke-width:1;stroke-linecap:round"></path><path d="M153.19448651532156,36.25213536030143L153.19448651532156,44.4362660759479L55.60915978912222,15.832710640882356zM148.28885540282315,46.54986344390294L50.703528676623804,26.13043872448387L153.19448651532156,44.4362660759479zM148.28885540282315,38.36573272825648L153.19448651532156,36.25213536030143L55.60915978912222,15.832710640882356z" style="fill:rgb(153,221,255); fill-opacity: 0.4"></path><path d="M39.35397580402816,-31.20425611170472L39.35397580402816,96.77775830326367L136.9393025302275,-10.784831392285641z" style="fill:rgb(238,238,238); fill-opacity: 0.4"></path><path d="M50.703528676623804,26.13043872448387L148.28885540282315,46.54986344390294L148.28885540282315,38.36573272825648z" style="fill:rgb(153,221,255); fill-opacity: 0.4"></path><path d="M189.61049529331416,114.96226332474211L254.83877399881527,86.85857696378967L352.4241007250146,107.27800168320873zM254.83877399881527,-21.9626423737889L254.83877399881527,86.85857696378967L189.61049529331416,6.141043987163523zM39.35397580402816,96.77775830326367L136.9393025302275,117.19718302268276L136.9393025302275,-10.784831392285641zM136.9393025302275,-10.784831392285641L136.9393025302275,117.19718302268276L213.65270967974874,-43.8368998662061z" style="fill:rgb(238,238,238); fill-opacity: 0.4"></path><path d="M321.051907686979,63.6330841925572L223.46658096077968,43.21365947313812M223.46658096077968,37.757572329373815L223.46658096077968,43.21365947313812M223.46658096077968,43.21365947313812L220.1961602191141,44.62272438510816M153.19448205454222,36.25213470024513L153.19448205454222,44.43626557849565M153.19448205454222,44.43626557849565L148.28885094204378,46.5498629464507M153.19448205454222,44.43626557849565L201.34643735553388,50.51388462628762M153.19448651532153,36.25213536030142L153.19448651532153,44.436266075947884M153.19448651532153,44.436266075947884L148.28885540282312,46.549863443902936M321.051907686979,58.176997048792884L223.46658096077968,37.757572329373815M223.46658096077968,37.757572329373815L220.1961602191141,39.16663724134385M136.93930253022748,-10.784831392285648L136.93930253022748,117.19718302268274" style="fill:none;stroke:rgb(0,0,0);stroke-width:1;stroke-linecap:round"></path><path d="M223.46658096077968,37.757572329373815L223.46658096077968,43.213659473138115L220.1961602191141,39.16663724134384z" style="fill:rgb(153,221,255); fill-opacity: 0.4"></path><path d="M153.19448205454222,36.25213470024513L148.28885094204378,38.36573206820018M153.19448205454222,36.25213470024513L201.34643735553388,50.51388462628762M153.19448651532153,36.25213536030142L148.28885540282312,38.36573272825647" style="fill:none;stroke:rgb(0,0,0);stroke-width:1;stroke-linecap:round"></path><path d="M148.28885540282315,46.54986344390294L153.19448651532156,44.4362660759479L153.19448651532156,36.25213536030143z" style="fill:rgb(153,221,255); fill-opacity: 0.4"></path><path d="M153.1944886189785,36.25213580048508L153.1944886189785,44.43626651613153L148.2888575064801,46.549863884086584z" style="fill:rgb(255,187,187); fill-opacity: 0.4"></path><path d="M223.46658096077968,43.213659473138115L220.1961602191141,44.62272438510816L220.1961602191141,39.16663724134384z" style="fill:rgb(153,221,255); fill-opacity: 0.4"></path><path d="M352.4241007250146,-1.5432176543698206L352.4241007250146,107.27800168320874M352.4241007250146,107.27800168320874L287.19582201951346,135.38168804416117M220.1961602191141,39.16663724134385L220.1961602191141,44.62272438510816M220.1961602191141,44.62272438510816L317.7814869453134,65.04214910452723" style="fill:none;stroke:rgb(0,0,0);stroke-width:1;stroke-linecap:round"></path><path d="M352.4241007250146,-1.5432176543698306L352.4241007250146,107.27800168320873L254.83877399881527,-21.9626423737889z" style="fill:rgb(238,238,238); fill-opacity: 0.4"></path><path d="M220.1961602191141,39.16663724134385L317.7814869453134,59.586061960762926" style="fill:none;stroke:rgb(0,0,0);stroke-width:1;stroke-linecap:round"></path><path d="M148.28885540282315,38.36573272825648L148.28885540282315,46.54986344390294L153.19448651532156,36.25213536030143z" style="fill:rgb(153,221,255); fill-opacity: 0.4"></path><path d="M153.1944886189785,36.25213580048508L148.2888575064801,46.549863884086584L148.2888575064801,38.36573316844012z" style="fill:rgb(255,187,187); fill-opacity: 0.4"></path><path d="M148.28885094204378,46.5498629464507L148.28885094204378,38.36573206820018M148.28885094204378,46.5498629464507L201.34643735553388,50.51388462628762M148.28885540282312,38.36573272825647L148.28885540282312,46.549863443902936M148.28885094204378,38.36573206820018L201.34643735553388,50.51388462628762" style="fill:none;stroke:rgb(0,0,0);stroke-width:1;stroke-linecap:round"></path><path d="M254.83877399881527,86.85857696378967L189.61049529331416,114.96226332474211L189.61049529331416,6.141043987163523z" style="fill:rgb(238,238,238); fill-opacity: 0.4"></path><path d="M153.1944886189785,44.43626651613153L153.1944886189785,36.25213580048508L201.3464428131673,50.513885950836254zM148.2888575064801,46.549863884086584L153.1944886189785,44.43626651613153L201.3464428131673,50.513885950836254zM153.1944886189785,36.25213580048508L148.2888575064801,38.36573316844012L201.3464428131673,50.513885950836254zM148.2888575064801,38.36573316844012L148.2888575064801,46.549863884086584L201.3464428131673,50.513885950836254z" style="fill:rgb(255,187,187); fill-opacity: 0.4"></path><path d="M321.051907686979,63.633084192557185L223.46658096077968,43.213659473138115L223.46658096077968,37.757572329373815zM220.1961602191141,44.62272438510816L223.46658096077968,43.213659473138115L321.051907686979,63.633084192557185zM220.1961602191141,39.16663724134384L317.78148694531336,59.58606196076291L223.46658096077968,37.757572329373815zM220.1961602191141,39.16663724134384L220.1961602191141,44.62272438510816L317.78148694531336,59.58606196076291z" style="fill:rgb(153,221,255); fill-opacity: 0.4"></path><path d="M189.61049529331413,6.141043987163528L189.61049529331413,114.96226332474208M189.61049529331413,114.96226332474208L287.19582201951346,135.38168804416117M496.62948913051235,137.13525545470432L399.044162404313,116.71583073528527M399.044162404313,8.924183933185626L399.044162404313,116.71583073528527M399.044162404313,116.71583073528527L334.43301742236827,144.55362425108228M352.4241007250146,-1.5432176543698206L287.19582201951346,26.560468706582594" style="fill:none;stroke:rgb(0,0,0);stroke-width:1;stroke-linecap:round"></path><path d="M287.19582201951346,135.38168804416117L189.61049529331416,114.96226332474211L352.4241007250146,107.27800168320873z" style="fill:rgb(238,238,238); fill-opacity: 0.4"></path><path d="M321.051907686979,58.176997048792884L321.051907686979,63.633084192557185L223.46658096077968,37.757572329373815z" style="fill:rgb(153,221,255); fill-opacity: 0.4"></path><path d="M287.19582201951346,135.38168804416117L352.4241007250146,107.27800168320873L352.4241007250146,-1.5432176543698306z" style="fill:rgb(238,238,238); fill-opacity: 0.4"></path><path d="M317.78148694531336,65.04214910452721L220.1961602191141,44.62272438510816L321.051907686979,63.633084192557185z" style="fill:rgb(153,221,255); fill-opacity: 0.4"></path><path d="M287.19582201951346,26.56046870658259L352.4241007250146,-1.5432176543698306L254.83877399881527,-21.9626423737889z" style="fill:rgb(238,238,238); fill-opacity: 0.4"></path><path d="M317.78148694531336,59.58606196076291L321.051907686979,58.176997048792884L223.46658096077968,37.757572329373815zM220.1961602191141,44.62272438510816L317.78148694531336,65.04214910452721L317.78148694531336,59.58606196076291z" style="fill:rgb(153,221,255); fill-opacity: 0.4"></path><path d="M189.61049529331416,6.141043987163523L287.19582201951346,26.56046870658259L254.83877399881527,-21.9626423737889z" style="fill:rgb(238,238,238); fill-opacity: 0.4"></path><path d="M189.61049529331413,6.141043987163528L287.19582201951346,26.560468706582594M321.0518996203007,58.176995621560366L321.0518996203007,63.63308244011653M321.0518996203007,63.63308244011653L317.78147878116897,65.04214739407998M321.0518996203007,63.63308244011653L366.3490343041356,71.4794747658809M321.051907686979,58.176997048792884L321.051907686979,63.6330841925572M321.051907686979,63.6330841925572L317.7814869453134,65.04214910452723M321.0518996203007,58.176995621560366L317.78147878116897,59.5860605755238M321.0518996203007,58.176995621560366L366.3490343041356,71.4794747658809M321.051907686979,58.176997048792884L317.7814869453134,59.586061960762926" style="fill:none;stroke:rgb(0,0,0);stroke-width:1;stroke-linecap:round"></path><path d="M317.78148694531336,65.04214910452721L321.051907686979,63.633084192557185L321.051907686979,58.176997048792884z" style="fill:rgb(153,221,255); fill-opacity: 0.4"></path><path d="M321.051909790636,58.17699748897653L321.051909790636,63.63308463274084L317.78148904897034,65.04214954471087z" style="fill:rgb(255,187,187); fill-opacity: 0.4"></path><path d="M496.62948913051235,137.13525545470435L399.044162404313,116.71583073528527L399.044162404313,8.92418393318563z" style="fill:rgb(238,238,238); fill-opacity: 0.4"></path><path d="M317.78148694531336,59.58606196076291L317.78148694531336,65.04214910452721L321.051907686979,58.176997048792884z" style="fill:rgb(153,221,255); fill-opacity: 0.4"></path><path d="M321.051909790636,58.17699748897653L317.78148904897034,65.04214954471087L317.78148904897034,59.58606240094657z" style="fill:rgb(255,187,187); fill-opacity: 0.4"></path><path d="M317.78147878116897,65.04214739407998L317.78147878116897,59.5860605755238M317.78147878116897,65.04214739407998L366.3490343041356,71.4794747658809M317.7814869453134,59.586061960762926L317.7814869453134,65.04214910452723M496.62948913051235,29.343608652604708L399.044162404313,8.924183933185626M399.044162404313,8.924183933185626L334.43301742236827,36.761977448982634M317.78147878116897,59.5860605755238L366.3490343041356,71.4794747658809" style="fill:none;stroke:rgb(0,0,0);stroke-width:1;stroke-linecap:round"></path><path d="M189.61049529331416,6.141043987163523L189.61049529331416,114.96226332474211L287.19582201951346,26.56046870658259z" style="fill:rgb(238,238,238); fill-opacity: 0.4"></path><path d="M321.051909790636,63.63308463274084L321.051909790636,58.17699748897653L366.34904447901584,71.47947697900129zM317.78148904897034,65.04214954471087L321.051909790636,63.63308463274084L366.34904447901584,71.47947697900129zM321.051909790636,58.17699748897653L317.78148904897034,59.58606240094657L366.34904447901584,71.47947697900129zM317.78148904897034,59.58606240094657L317.78148904897034,65.04214954471087L366.34904447901584,71.47947697900129z" style="fill:rgb(255,187,187); fill-opacity: 0.4"></path><path d="M189.61049529331416,114.96226332474211L287.19582201951346,135.38168804416117L287.19582201951346,26.56046870658259zM287.19582201951346,26.56046870658259L287.19582201951346,135.38168804416117L352.4241007250146,-1.5432176543698306zM334.4330174223683,144.55362425108228L399.044162404313,116.71583073528527L496.62948913051235,137.13525545470435zM399.044162404313,8.92418393318563L399.044162404313,116.71583073528527L334.4330174223683,36.76197744898263z" style="fill:rgb(238,238,238); fill-opacity: 0.4"></path><path d="M287.19582201951346,26.560468706582594L287.19582201951346,135.38168804416117M496.62948913051235,29.343608652604708L496.62948913051235,137.13525545470432M496.62948913051235,137.13525545470432L432.0183441485676,164.97304897050137" style="fill:none;stroke:rgb(0,0,0);stroke-width:1;stroke-linecap:round"></path><path d="M496.62948913051235,29.343608652604708L496.62948913051235,137.13525545470435L399.044162404313,8.92418393318563zM399.044162404313,116.71583073528527L334.4330174223683,144.55362425108228L334.4330174223683,36.76197744898263z" style="fill:rgb(238,238,238); fill-opacity: 0.4"></path><path d="M334.43301742236827,36.761977448982634L334.43301742236827,144.55362425108228M334.43301742236827,144.55362425108228L432.0183441485676,164.97304897050137M496.62948913051235,29.343608652604708L432.0183441485676,57.181402168401696" style="fill:none;stroke:rgb(0,0,0);stroke-width:1;stroke-linecap:round"></path><path d="M432.0183441485676,164.97304897050137L334.4330174223683,144.55362425108228L496.62948913051235,137.13525545470435z" style="fill:rgb(238,238,238); fill-opacity: 0.4"></path><path d="M541.3160831390818,274.1608563109438L525.0518612721382,270.7576187016279M525.0518612721382,-58.281833442008526L525.0518612721382,270.7576187016279M525.0518612721382,270.7576187016279L513.7174466593417,275.64106556983666" style="fill:none;stroke:rgb(0,0,0);stroke-width:1;stroke-linecap:round"></path><path d="M432.0183441485676,164.97304897050137L496.62948913051235,137.13525545470435L496.62948913051235,29.343608652604708zM432.0183441485676,57.18140216840171L496.62948913051235,29.343608652604708L399.044162404313,8.92418393318563zM513.7174466593417,275.64106556983666L525.0518612721382,270.7576187016279L541.3160831390818,274.16085631094387z" style="fill:rgb(238,238,238); fill-opacity: 0.4"></path><path d="M541.3160831390818,-54.87859583269261L541.3160831390818,274.1608563109438M541.3160831390818,274.1608563109438L529.9816685262854,279.0443031791526" style="fill:none;stroke:rgb(0,0,0);stroke-width:1;stroke-linecap:round"></path><path d="M334.4330174223683,36.76197744898263L432.0183441485676,57.18140216840171L399.044162404313,8.92418393318563z" style="fill:rgb(238,238,238); fill-opacity: 0.4"></path><path d="M513.7174466593417,-53.39838657379975L513.7174466593417,275.64106556983666M513.7174466593417,275.64106556983666L529.9816685262854,279.0443031791526" style="fill:none;stroke:rgb(0,0,0);stroke-width:1;stroke-linecap:round"></path><path d="M529.9816685262853,279.0443031791526L513.7174466593417,275.64106556983666L541.3160831390818,274.16085631094387z" style="fill:rgb(238,238,238); fill-opacity: 0.4"></path><path d="M334.43301742236827,36.761977448982634L432.0183441485676,57.181402168401696M529.9816685262854,-49.99514896448383L529.9816685262854,279.0443031791526" style="fill:none;stroke:rgb(0,0,0);stroke-width:1;stroke-linecap:round"></path><path d="M334.4330174223683,36.76197744898263L334.4330174223683,144.55362425108228L432.0183441485676,57.18140216840171z" style="fill:rgb(238,238,238); fill-opacity: 0.4"></path><path d="M474.80246087101114,99.3509314525624L501.39534799347655,104.91540999545596" style="fill:none;stroke:rgb(0,0,0);stroke-width:1;stroke-linecap:round"></path><path d="M541.3160831390818,274.16085631094387L525.0518612721382,270.7576187016279L525.0518612721382,-58.28183344200854zM334.4330174223683,144.55362425108228L432.0183441485676,164.97304897050137L432.0183441485676,57.18140216840171zM432.0183441485676,57.18140216840171L432.0183441485676,164.97304897050137L496.62948913051235,29.343608652604708zM525.0518612721382,270.7576187016279L513.7174466593417,275.64106556983666L513.7174466593417,-53.39838657379976z" style="fill:rgb(238,238,238); fill-opacity: 0.4"></path><path d="M432.0183441485676,57.181402168401696L432.0183441485676,164.97304897050137" style="fill:none;stroke:rgb(0,0,0);stroke-width:1;stroke-linecap:round"></path><path d="M529.9816685262853,279.0443031791526L541.3160831390818,274.16085631094387L541.3160831390818,-54.87859583269261z" style="fill:rgb(238,238,238); fill-opacity: 0.4"></path><path d="M497.5074041997852,108.6980651139888L501.39534799347666,111.73551892516134L517.0382227713975,108.18863266774628zM503.798229310456,98.36254145801261L498.9924666764974,100.43311036570583L517.0382227713975,108.18863266774628zM498.9924666764974,100.43311036570583L497.5074041997852,108.6980651139888L517.0382227713975,108.18863266774628z" style="fill:rgb(0,0,0)"></path><path d="M513.7174466593417,275.64106556983666L529.9816685262853,279.0443031791526L529.9816685262853,-49.99514896448383z" style="fill:rgb(238,238,238); fill-opacity: 0.4"></path><path d="M537.9953070270259,112.57383706939777L564.5881941494914,118.13831561229131" style="fill:none;stroke:rgb(0,0,0);stroke-width:1;stroke-linecap:round"></path><path d="M525.0518612721382,-58.28183344200854L525.0518612721382,270.7576187016279L513.7174466593417,-53.39838657379976zM541.3160831390818,-54.87859583269261L541.3160831390818,274.16085631094387L525.0518612721382,-58.28183344200854z" style="fill:rgb(238,238,238); fill-opacity: 0.4"></path><path d="M604.5089292950967,170.13743004406297L588.244707428153,166.73419243474703M588.244707428153,72.1874040585431L588.244707428153,166.73419243474703M588.244707428153,166.73419243474703L576.9102928153566,171.61763930295584" style="fill:none;stroke:rgb(0,0,0);stroke-width:1;stroke-linecap:round"></path><path d="M576.9102928153566,171.61763930295584L588.2447074281531,166.73419243474703L604.5089292950968,170.13743004406294zM513.7174466593417,-53.39838657379976L513.7174466593417,275.64106556983666L529.9816685262853,-49.99514896448383z" style="fill:rgb(238,238,238); fill-opacity: 0.4"></path><path d="M604.5089292950967,75.59064166785902L604.5089292950967,170.13743004406297M604.5089292950967,170.13743004406297L593.1745146823002,175.02087691227175" style="fill:none;stroke:rgb(0,0,0);stroke-width:1;stroke-linecap:round"></path><path d="M529.9816685262853,-49.99514896448383L529.9816685262853,279.0443031791526L541.3160831390818,-54.87859583269261zM604.5089292950968,170.13743004406294L588.2447074281531,166.73419243474703L588.2447074281531,72.18740405854308z" style="fill:rgb(238,238,238); fill-opacity: 0.4"></path><path d="M560.7002503558,121.92097073082418L564.5881941494915,124.95842454199675L580.2310689274124,121.41153828458167zM566.9910754664708,111.58544707484799L562.1853128325122,113.6560159825412L580.2310689274124,121.41153828458167z" style="fill:rgb(0,0,0)"></path><path d="M576.9102928153566,77.07085092675189L576.9102928153566,171.61763930295584M576.9102928153566,171.61763930295584L593.1745146823002,175.02087691227175" style="fill:none;stroke:rgb(0,0,0);stroke-width:1;stroke-linecap:round"></path><path d="M562.1853128325122,113.6560159825412L560.7002503558,121.92097073082418L580.2310689274124,121.41153828458167z" style="fill:rgb(0,0,0)"></path><path d="M593.1745146823002,175.02087691227175L576.9102928153566,171.61763930295584L604.5089292950968,170.13743004406294zM588.2447074281531,166.73419243474703L576.9102928153566,171.61763930295584L576.9102928153566,77.07085092675189z" style="fill:rgb(238,238,238); fill-opacity: 0.4"></path><path d="M541.3160831390818,-54.87859583269261L525.0518612721382,-58.281833442008526M525.0518612721382,-58.281833442008526L513.7174466593417,-53.39838657379975" style="fill:none;stroke:rgb(0,0,0);stroke-width:1;stroke-linecap:round"></path><path d="M588.2447074281531,72.18740405854308L588.2447074281531,166.73419243474703L576.9102928153566,77.07085092675189zM593.1745146823002,175.02087691227175L604.5089292950968,170.13743004406294L604.5089292950968,75.590641667859z" style="fill:rgb(238,238,238); fill-opacity: 0.4"></path><path d="M593.1745146823002,80.47408853606781L593.1745146823002,175.02087691227175" style="fill:none;stroke:rgb(0,0,0);stroke-width:1;stroke-linecap:round"></path><path d="M604.5089292950968,75.590641667859L604.5089292950968,170.13743004406294L588.2447074281531,72.18740405854308z" style="fill:rgb(238,238,238); fill-opacity: 0.4"></path><path d="M604.5089292950967,75.59064166785902L588.244707428153,72.1874040585431M588.244707428153,72.1874040585431L576.9102928153566,77.07085092675189" style="fill:none;stroke:rgb(0,0,0);stroke-width:1;stroke-linecap:round"></path><path d="M576.9102928153566,171.61763930295584L593.1745146823002,175.02087691227175L593.1745146823002,80.4740885360678z" style="fill:rgb(238,238,238); fill-opacity: 0.4"></path><path d="M601.1881531830409,125.79674268623317L627.7810403055063,131.36122122912673M541.3160831390818,-54.87859583269261L529.9816685262854,-49.99514896448383" style="fill:none;stroke:rgb(0,0,0);stroke-width:1;stroke-linecap:round"></path><path d="M529.9816685262853,-49.99514896448383L541.3160831390818,-54.87859583269261L525.0518612721382,-58.28183344200854zM513.7174466593417,-53.39838657379976L529.9816685262853,-49.99514896448383L525.0518612721382,-58.28183344200854zM576.9102928153566,77.07085092675189L576.9102928153566,171.61763930295584L593.1745146823002,80.4740885360678z" style="fill:rgb(238,238,238); fill-opacity: 0.4"></path><path d="M513.7174466593417,-53.39838657379975L529.9816685262854,-49.99514896448383M604.5089292950967,75.59064166785902L593.1745146823002,80.47408853606781" style="fill:none;stroke:rgb(0,0,0);stroke-width:1;stroke-linecap:round"></path><path d="M593.1745146823002,80.4740885360678L593.1745146823002,175.02087691227175L604.5089292950968,75.590641667859zM593.1745146823002,80.4740885360678L604.5089292950968,75.590641667859L588.2447074281531,72.18740405854308zM576.9102928153566,77.07085092675189L593.1745146823002,80.4740885360678L588.2447074281531,72.18740405854308z" style="fill:rgb(238,238,238); fill-opacity: 0.4"></path><path d="M576.9102928153566,77.07085092675189L593.1745146823002,80.47408853606781M667.7017754511116,137.4509632587375L651.437553584168,134.04772564942152M651.437553584168,131.31968207753937L651.437553584168,134.04772564942152M651.437553584168,134.04772564942152L640.1031389713714,138.9311725176303" style="fill:none;stroke:rgb(0,0,0);stroke-width:1;stroke-linecap:round"></path><path d="M623.8930965118149,135.14387634765956L627.7810403055063,138.1813301588321L643.4239150834272,134.63444390141706zM630.1839216224856,124.80835269168337L625.378158988527,126.87892159937661L643.4239150834272,134.63444390141706z" style="fill:rgb(0,0,0)"></path><path d="M667.7017754511116,134.7229196868553L651.437553584168,131.31968207753937M651.437553584168,131.31968207753937L640.1031389713714,136.20312894574815" style="fill:none;stroke:rgb(0,0,0);stroke-width:1;stroke-linecap:round"></path><path d="M625.378158988527,126.87892159937661L623.8930965118149,135.14387634765956L643.4239150834272,134.63444390141706z" style="fill:rgb(0,0,0)"></path><path d="M667.7017754511116,137.45096325873746L651.4375535841681,134.04772564942152L651.4375535841681,131.31968207753934zM651.4375535841681,131.31968207753934L651.4375535841681,134.04772564942152L640.1031389713714,136.20312894574815zM667.7017754511116,134.72291968685528L667.7017754511116,137.45096325873746L651.4375535841681,131.31968207753934zM640.1031389713714,138.9311725176303L651.4375535841681,134.04772564942152L667.7017754511116,137.45096325873746zM651.4375535841681,134.04772564942152L640.1031389713714,138.9311725176303L640.1031389713714,136.20312894574815z" style="fill:rgb(238,238,238); fill-opacity: 0.4"></path><path d="M667.7017754511116,134.7229196868553L667.7017754511116,137.4509632587375M667.7017754511116,137.4509632587375L656.3673608383151,142.33441012694627M667.7017754511116,134.7229196868553L656.3673608383151,139.60636655506408" style="fill:none;stroke:rgb(0,0,0);stroke-width:1;stroke-linecap:round"></path><path d="M656.367360838315,139.60636655506408L667.7017754511116,134.72291968685528L651.4375535841681,131.31968207753934zM640.1031389713714,136.20312894574815L656.367360838315,139.60636655506408L651.4375535841681,131.31968207753934z" style="fill:rgb(238,238,238); fill-opacity: 0.4"></path><path d="M640.1031389713714,136.20312894574815L640.1031389713714,138.9311725176303M640.1031389713714,138.9311725176303L656.3673608383151,142.33441012694627" style="fill:none;stroke:rgb(0,0,0);stroke-width:1;stroke-linecap:round"></path><path d="M656.367360838315,142.33441012694627L667.7017754511116,137.45096325873746L667.7017754511116,134.72291968685528z" style="fill:rgb(238,238,238); fill-opacity: 0.4"></path><path d="M640.1031389713714,136.20312894574815L656.3673608383151,139.60636655506408" style="fill:none;stroke:rgb(0,0,0);stroke-width:1;stroke-linecap:round"></path><path d="M656.367360838315,142.33441012694627L640.1031389713714,138.9311725176303L667.7017754511116,137.45096325873746zM640.1031389713714,136.20312894574815L640.1031389713714,138.9311725176303L656.367360838315,139.60636655506408zM656.367360838315,139.60636655506408L656.367360838315,142.33441012694627L667.7017754511116,134.72291968685528zM640.1031389713714,138.9311725176303L656.367360838315,142.33441012694627L656.367360838315,139.60636655506408z" style="fill:rgb(238,238,238); fill-opacity: 0.4"></path><path d="M656.3673608383151,139.60636655506408L656.3673608383151,142.33441012694627" style="fill:none;stroke:rgb(0,0,0);stroke-width:1;stroke-linecap:round"></path></svg>